<?xml version="1.0" encoding="UTF-8"?>
<svg version="1.1" xmlns="http://www.w3.org/2000/svg" xmlns:xlink="http://www.w3.org/1999/xlink">
<defs>

</defs>
<symbol id="i-iconangle" viewBox="0 0 16 9" fill="none" xmlns="http://www.w3.org/2000/svg"><path d="M1 8l7-7 7 7" stroke="#ba5857" stroke-width="2" stroke-linecap="round" stroke-linejoin="round"/></symbol>
<symbol id="i-iconarrow" xmlns="http://www.w3.org/2000/svg" viewBox="0 0 16.8 16.8"><path d="M4.3 1h11.5m0 0v11.5m0-11.5L1 15.8"/><path class="st0" d="M1 16.8c-.3 0-.5-.1-.7-.3-.4-.4-.4-1 0-1.4L13.4 2H4.3c-.6 0-1-.4-1-1s.4-1 1-1h11.5c.1 0 .3 0 .4.1.1 0 .2.1.3.2.1.1.2.2.2.3 0 .1.1.2.1.4v11.5c0 .6-.4 1-1 1s-1-.4-1-1V3.4L1.7 16.6c-.2.2-.4.2-.7.2z"/></symbol>
<symbol id="i-icongithub" viewBox="0 0 20 20" fill="none" xmlns="http://www.w3.org/2000/svg"><path d="M20 10.25c0 2.234-.636 4.243-1.908 6.027-1.271 1.784-2.914 3.018-4.928 3.703-.234.045-.406.014-.514-.093a.539.539 0 01-.163-.4V16.67c0-.863-.226-1.495-.677-1.895.495-.053.94-.133 1.335-.24a5.25 5.25 0 001.223-.52 3.66 3.66 0 001.055-.888c.282-.352.512-.819.69-1.402.178-.582.267-1.252.267-2.008 0-1.077-.343-1.994-1.028-2.75.32-.81.286-1.717-.105-2.723-.243-.08-.594-.03-1.054.147-.46.178-.86.374-1.198.587l-.495.32a9.03 9.03 0 00-2.5-.346 9.03 9.03 0 00-2.5.347 11.518 11.518 0 00-.553-.36c-.23-.143-.593-.314-1.088-.514-.494-.2-.868-.26-1.12-.18-.381 1.005-.412 1.912-.09 2.722-.686.756-1.03 1.673-1.03 2.75 0 .756.09 1.423.268 2.002.178.578.406 1.045.683 1.401a3.53 3.53 0 001.048.894c.421.24.83.414 1.224.52.395.108.84.188 1.335.241-.347.32-.56.779-.638 1.375a2.538 2.538 0 01-.586.2 3.597 3.597 0 01-.742.067c-.287 0-.57-.096-.853-.287-.282-.191-.523-.47-.723-.834a2.133 2.133 0 00-.631-.694c-.256-.178-.471-.285-.645-.32l-.26-.04c-.182 0-.308.02-.378.06-.07.04-.09.09-.065.153a.738.738 0 00.117.187.961.961 0 00.17.16l.09.066c.192.09.38.258.567.508.187.249.324.476.41.68l.13.307c.113.338.304.612.574.821.269.21.56.343.872.4.312.058.614.09.905.094.29.005.532-.011.723-.047l.299-.053c0 .338.002.734.007 1.188l.006.72c0 .16-.056.294-.17.4-.112.108-.286.139-.52.094-2.014-.685-3.657-1.92-4.928-3.703C.636 14.493 0 12.484 0 10.25c0-1.86.447-3.574 1.341-5.145a10.083 10.083 0 013.64-3.73A9.6 9.6 0 0110 0a9.6 9.6 0 015.02 1.375 10.084 10.084 0 013.639 3.73C19.553 6.675 20 8.391 20 10.251z" fill="#fff"/></symbol>
<symbol id="i-iconinstagram" viewBox="0 0 24 24" fill="none" xmlns="http://www.w3.org/2000/svg"><path d="M12.003 5.847A6.143 6.143 0 005.85 12a6.143 6.143 0 006.152 6.153A6.143 6.143 0 0018.155 12a6.143 6.143 0 00-6.152-6.153zm0 10.153c-2.2 0-4-1.794-4-4s1.794-4 4-4 4 1.794 4 4-1.8 4-4 4zM19.84 5.595c0 .798-.642 1.435-1.435 1.435a1.435 1.435 0 111.435-1.435zm4.075 1.457c-.091-1.923-.53-3.626-1.939-5.029C20.575.62 18.872.181 16.95.084c-1.981-.112-7.919-.112-9.9 0-1.917.091-3.62.53-5.027 1.934C.614 3.42.18 5.124.084 7.046c-.112 1.982-.112 7.92 0 9.902.091 1.923.53 3.626 1.939 5.029 1.408 1.403 3.105 1.842 5.027 1.939 1.981.112 7.919.112 9.9 0 1.922-.091 3.625-.53 5.027-1.939 1.403-1.403 1.842-3.106 1.939-5.029.112-1.981.112-7.915 0-9.896zm-2.56 12.022a4.05 4.05 0 01-2.28 2.282c-1.58.626-5.328.482-7.073.482-1.746 0-5.499.139-7.073-.482a4.05 4.05 0 01-2.281-2.282c-.626-1.58-.482-5.328-.482-7.074 0-1.746-.14-5.5.482-7.074a4.05 4.05 0 012.28-2.282c1.58-.626 5.328-.482 7.074-.482 1.745 0 5.498-.139 7.073.482a4.05 4.05 0 012.28 2.282c.627 1.58.482 5.328.482 7.074 0 1.746.145 5.5-.482 7.074z" fill="#fff"/></symbol>
<symbol id="i-iconlinkedin" viewBox="0 0 24 24" fill="none" xmlns="http://www.w3.org/2000/svg"><path d="M5.373 22.182A1.818 1.818 0 013.555 24h-1.34a1.818 1.818 0 01-1.819-1.818V9.795c0-1.004.814-1.818 1.819-1.818h1.34c1.004 0 1.818.814 1.818 1.818v12.387zm-2.49-16.39C1.29 5.791 0 4.472 0 2.881a2.883 2.883 0 015.764 0c0 1.591-1.29 2.91-2.882 2.91zM23.994 24h-3.148a1.818 1.818 0 01-1.818-1.818V16.2c0-1.859-.038-4.243-2.588-4.243-2.587 0-2.984 2.02-2.984 4.11v6.115A1.818 1.818 0 0111.64 24h-1.335a1.818 1.818 0 01-1.818-1.818V9.795c0-1.004.814-1.818 1.818-1.818h1.862c.604 0 1.093.49 1.093 1.093v1.05a.044.044 0 00.082.02c.672-1.253 2.29-2.565 4.697-2.565 5.035 0 5.962 3.316 5.962 7.623v8.797a.005.005 0 01-.005.005z" fill="#fff"/></symbol>
<symbol id="i-icontwitter" viewBox="0 0 16 14" fill="none" xmlns="http://www.w3.org/2000/svg"><path d="M16 2.009a6.89 6.89 0 01-1.89.513A3.237 3.237 0 0015.553.726a6.593 6.593 0 01-2.08.787A3.302 3.302 0 0011.077.484c-1.816 0-3.278 1.46-3.278 3.25 0 .258.022.506.076.741a9.314 9.314 0 01-6.761-3.398 3.248 3.248 0 00-.449 1.642c0 1.125.585 2.123 1.457 2.7a3.263 3.263 0 01-1.482-.4v.036c0 1.579 1.137 2.89 2.628 3.192a3.304 3.304 0 01-.86.107c-.21 0-.422-.011-.621-.055a3.308 3.308 0 003.065 2.263 6.63 6.63 0 01-4.067 1.386A6.2 6.2 0 010 11.904a9.298 9.298 0 005.032 1.458c6.036 0 9.336-4.953 9.336-9.246 0-.144-.005-.283-.012-.42A6.51 6.51 0 0016 2.009z" fill="#fff"/></symbol>
</svg>